<svg width="89" height="64" viewBox="0 0 89 64" fill="none" xmlns="http://www.w3.org/2000/svg">
<path d="M44.2645 5.7832C53.6414 9.66295 52.4155 14.2861 52.4155 14.2861C52.4155 16.3825 50.9328 18.0825 49.0961 18.0825H39.4384C37.6113 18.0825 36.1231 16.3825 36.1231 14.2861C36.1231 14.2861 34.8877 9.66295 44.2645 5.7832Z" fill="#FFA4A4" stroke="#231F20" stroke-miterlimit="10"/>
<path d="M44.2646 5.44874V1.44531" stroke="#231F20" stroke-miterlimit="10" stroke-linecap="round" stroke-linejoin="round"/>
<path d="M34.7031 24.2317H54.5187V18.082H34.7031V24.2317Z" fill="#D20000" fill-opacity="0.2" stroke="#231F20" stroke-miterlimit="10"/>
<path d="M26.5039 58.3974H32.6536V33.7988H26.5039V58.3974Z" fill="#D20000" fill-opacity="0.2" stroke="#231F20" stroke-miterlimit="10"/>
<path d="M29.9196 26.9648C35.386 29.1186 34.6719 31.6857 34.6719 31.6857C34.6942 32.223 34.5023 32.7471 34.1385 33.1431C33.7747 33.5391 33.2686 33.7745 32.7314 33.7978H27.1003C26.5645 33.7726 26.0604 33.5363 25.6983 33.1405C25.3362 32.7447 25.1455 32.2217 25.168 31.6857C25.168 31.6857 24.4478 29.1186 29.9196 26.9648Z" stroke="#231F20" stroke-miterlimit="10"/>
<path d="M30.0166 26.8985V24.4004" stroke="#231F20" stroke-miterlimit="10" stroke-linecap="round" stroke-linejoin="round"/>
<path d="M55.8848 58.3974H62.0344V33.7988H55.8848V58.3974Z" fill="#D20000" fill-opacity="0.2" stroke="#231F20" stroke-miterlimit="10"/>
<path d="M59.3015 26.9648C64.7679 29.1186 64.0538 31.6857 64.0538 31.6857C64.0766 32.2227 63.8853 32.7467 63.522 33.1428C63.1586 33.5388 62.653 33.7744 62.116 33.7978H56.4843C56.4029 33.7983 56.3216 33.7923 56.2411 33.78C55.7542 33.693 55.3151 33.4333 55.0043 33.0486C54.6936 32.6639 54.532 32.18 54.5492 31.6857C54.5492 31.6857 54.1495 30.2508 56.2363 28.6218C57.1743 27.9269 58.2064 27.369 59.3015 26.9648Z" fill="#FFA4A4" stroke="#231F20" stroke-miterlimit="10"/>
<path d="M59.2383 26.8985V24.4004" stroke="#231F20" stroke-miterlimit="10" stroke-linecap="round" stroke-linejoin="round"/>
<path d="M55.3919 37.4531H32.6143" stroke="#231F20" stroke-miterlimit="10"/>
<path d="M55.3919 37.4531H32.6143" stroke="#231F20" stroke-miterlimit="10"/>
<path d="M27.1865 63.1795H62.0345V58.3965H27.1865V63.1795Z" fill="#D20000" fill-opacity="0.2" stroke="#231F20" stroke-miterlimit="10"/>
<path d="M32.6532 27.6375C32.6532 24.7315 35.0448 24.2327 37.9945 24.2327H50.5405C53.4937 24.2327 55.8852 24.7315 55.8852 27.6375V28.3324H32.6532V27.6375Z" fill="#FFA4A4" stroke="#231F20" stroke-miterlimit="10"/>
<path d="M29.9196 26.9648C31.0093 27.3674 32.0369 27.9215 32.9719 28.6109C35.0771 30.2412 34.6747 31.6857 34.6747 31.6857C34.6915 32.1799 34.5297 32.6635 34.219 33.0482C33.9083 33.4328 33.4695 33.6926 32.9828 33.78C32.9007 33.7923 32.8178 33.7982 32.7348 33.7978H27.1003C26.5645 33.7726 26.0604 33.5363 25.6983 33.1405C25.3362 32.7447 25.1455 32.2217 25.168 31.6857C25.168 31.6857 24.4478 29.1186 29.9196 26.9648Z" fill="#FFA4A4" stroke="#231F20" stroke-miterlimit="10"/>
<path d="M32.6533 33.7902C33.1251 33.7109 33.5524 33.4639 33.8567 33.0947C34.161 32.7255 34.3218 32.2589 34.3096 31.7806C34.3096 31.7806 34.7128 30.3935 32.6533 28.8288V28.332H55.8853V28.8411C53.8464 30.4017 54.2372 31.7793 54.2372 31.7793C54.2234 32.2568 54.3825 32.7233 54.6854 33.0928C54.9882 33.4623 55.4144 33.71 55.8853 33.7902V37.2149H32.6533V33.7902Z" fill="#D20000" fill-opacity="0.2" stroke="#231F20" stroke-miterlimit="10"/>
<path d="M32.6533 58.397H55.8853V37.2148H32.6533V58.397Z" stroke="#231F20" stroke-miterlimit="10"/>
<path d="M40.8519 37.2168H32.6523V58.3989H40.8519V37.2168Z" fill="#FFA4A4"/>
<path d="M40.5102 37.5583H32.994V58.0572H40.5102V37.5583Z" stroke="black" stroke-miterlimit="10"/>
<path d="M48.3685 37.2168H40.1689V58.3989H48.3685V37.2168Z" fill="#FFA4A4"/>
<path d="M48.0268 37.5583H40.5106V58.0572H48.0268V37.5583Z" stroke="black" stroke-miterlimit="10"/>
<path d="M55.8851 37.2168H47.6855V58.3989H55.8851V37.2168Z" fill="#FFA4A4"/>
<path d="M55.5434 37.5583H48.0272V58.0572H55.5434V37.5583Z" stroke="black" stroke-miterlimit="10"/>
<path d="M32.6533 58.3966H55.8853V54.2969H32.6533V58.3966Z" fill="#D20000" fill-opacity="0.2" stroke="#231F20" stroke-miterlimit="10"/>
<path d="M39.5293 31.5488V34.7671" stroke="#231F20" stroke-miterlimit="10"/>
<path d="M44.2002 31.5488V34.7671" stroke="#231F20" stroke-miterlimit="10"/>
<path d="M49.5574 31.5486V34.7669" stroke="#231F20" stroke-miterlimit="10"/>
<path d="M80.1534 42.6816H62.0352" stroke="#231F20" stroke-miterlimit="10"/>
<path d="M62.0352 42.6812H79.8008V37.2148H62.0352V42.6812Z" stroke="#231F20" stroke-miterlimit="10"/>
<path d="M62.0352 58.3974H79.8008V42.6816H62.0352V58.3974Z" fill="#FFA4A4" stroke="#231F20" stroke-miterlimit="10"/>
<path d="M79.8006 58.3974H85.9502V33.7988H79.8006V58.3974Z" fill="#D20000" fill-opacity="0.2" stroke="#231F20" stroke-miterlimit="10"/>
<path d="M83.2165 26.9648C77.7502 29.1186 78.4642 31.6857 78.4642 31.6857C78.4528 31.9516 78.4938 32.2172 78.585 32.4673C78.6762 32.7174 78.8157 32.947 78.9957 33.1431C79.1756 33.3393 79.3924 33.498 79.6337 33.6104C79.8751 33.7227 80.1361 33.7864 80.4021 33.7978H86.0338C86.5701 33.7733 87.0749 33.5373 87.4376 33.1414C87.8002 32.7456 87.9913 32.2221 87.9689 31.6857C87.9689 31.6857 88.6829 29.1186 83.2165 26.9648Z" fill="#FFA4A4" stroke="#231F20" stroke-miterlimit="10"/>
<path d="M82.998 26.8985V24.4004" stroke="#231F20" stroke-miterlimit="10" stroke-linecap="round" stroke-linejoin="round"/>
<path d="M73.6994 46.7812H75.6489C75.8731 46.9497 76.056 47.1671 76.1834 47.417C76.3108 47.6669 76.3795 47.9426 76.3841 48.223V50.1977H72.9676V48.223C72.9721 47.9429 73.0404 47.6675 73.1672 47.4177C73.294 47.1679 73.476 46.9502 73.6994 46.7812Z" fill="#D20000" fill-opacity="0.2" stroke="#231F20" stroke-miterlimit="10"/>
<path d="M72.9678 58.3966H76.3842V54.2969H72.9678V58.3966Z" fill="#D20000" fill-opacity="0.2" stroke="#231F20" stroke-miterlimit="10"/>
<path d="M66.1832 46.7812H68.1347C68.359 46.9495 68.5417 47.1669 68.6688 47.4169C68.7959 47.6668 68.864 47.9426 68.8678 48.223V50.1977H65.4514V48.223C65.4551 47.9428 65.523 47.6671 65.6499 47.4172C65.7767 47.1672 65.9592 46.9497 66.1832 46.7812Z" fill="#D20000" fill-opacity="0.2" stroke="#231F20" stroke-miterlimit="10"/>
<path d="M65.4512 58.3966H68.8676V54.2969H65.4512V58.3966Z" fill="#D20000" fill-opacity="0.2" stroke="#231F20" stroke-miterlimit="10"/>
<path d="M62.0352 42.6812H68.1848V37.2148H62.0352V42.6812Z" fill="#FFA4A4" stroke="#231F20" stroke-miterlimit="10"/>
<path d="M68.1846 42.6812H73.6509V37.2148H68.1846V42.6812Z" fill="#FFA4A4" stroke="#231F20" stroke-miterlimit="10"/>
<path d="M73.6514 42.6812H79.801V37.2148H73.6514V42.6812Z" fill="#FFA4A4" stroke="#231F20" stroke-miterlimit="10"/>
<path d="M8.73828 42.6816H26.8565" stroke="#231F20" stroke-miterlimit="10"/>
<path d="M8.73828 58.3974H26.5039V42.6816H8.73828V58.3974Z" fill="#FFA4A4" stroke="#231F20" stroke-miterlimit="10"/>
<path d="M8.73828 42.6812H26.5039V37.2148H8.73828V42.6812Z" stroke="#231F20" stroke-miterlimit="10"/>
<path d="M2.58789 58.3974H8.73754V33.7988H2.58789V58.3974Z" fill="#D20000" fill-opacity="0.2" stroke="#231F20" stroke-miterlimit="10"/>
<path d="M6.00463 26.9648C11.471 29.1186 10.7556 31.6857 10.7556 31.6857C10.7789 32.2225 10.5881 32.7466 10.2251 33.1426C9.86205 33.5387 9.35657 33.7744 8.8198 33.7978H3.18672C2.65064 33.7728 2.14626 33.5366 1.78379 33.1408C1.42132 32.7451 1.23024 32.2219 1.25232 31.6857C1.25232 31.6857 0.538273 29.1186 6.00463 26.9648Z" fill="#FFA4A4" stroke="#231F20" stroke-miterlimit="10"/>
<path d="M5.54395 26.8985V24.4004" stroke="#231F20" stroke-miterlimit="10" stroke-linecap="round" stroke-linejoin="round"/>
<path d="M14.8411 46.7812H12.8876C12.6632 46.9495 12.4805 47.1669 12.3534 47.4169C12.2263 47.6668 12.1582 47.9426 12.1544 48.223V50.1977H15.5709V48.223C15.5672 47.943 15.4995 47.6674 15.3731 47.4176C15.2466 47.1677 15.0646 46.95 14.8411 46.7812Z" fill="#D20000" fill-opacity="0.2" stroke="#231F20" stroke-miterlimit="10"/>
<path d="M12.1543 58.3966H15.5708V54.2969H12.1543V58.3966Z" fill="#D20000" fill-opacity="0.2" stroke="#231F20" stroke-miterlimit="10"/>
<path d="M22.3556 46.7812H20.4041C20.1797 46.9495 19.997 47.1669 19.8699 47.4169C19.7428 47.6668 19.6747 47.9426 19.6709 48.223V50.1977H23.0874V48.223C23.0836 47.9428 23.0157 47.6671 22.8889 47.4172C22.762 47.1672 22.5796 46.9497 22.3556 46.7812Z" fill="#D20000" fill-opacity="0.2" stroke="#231F20" stroke-miterlimit="10"/>
<path d="M19.6709 58.3966H23.0874V54.2969H19.6709V58.3966Z" fill="#D20000" fill-opacity="0.2" stroke="#231F20" stroke-miterlimit="10"/>
<path d="M8.73828 42.6812H14.8879V37.2148H8.73828V42.6812Z" fill="#FFA4A4" stroke="#231F20" stroke-miterlimit="10"/>
<path d="M14.8877 42.6812H20.3541V37.2148H14.8877V42.6812Z" fill="#FFA4A4" stroke="#231F20" stroke-miterlimit="10"/>
<path d="M20.3535 42.6812H26.5032V37.2148H20.3535V42.6812Z" fill="#FFA4A4" stroke="#231F20" stroke-miterlimit="10"/>
</svg>
