<svg width="60" height="73" viewBox="0 0 60 73" fill="none" xmlns="http://www.w3.org/2000/svg">
<path d="M3.41663 65.25V67.6667H22.75V65.25H3.41663Z" fill="#EFA3A3" stroke="#231F20" stroke-width="0.7"/>
<path d="M5.83362 62.8328V65.2494H10.667V62.8328H5.83362Z" stroke="#231F20" stroke-width="0.7"/>
<path d="M11.8752 62.8328V65.2494H16.7086V62.8328H11.8752Z" stroke="#231F20" stroke-width="0.7"/>
<path d="M17.917 62.8328V65.2494H22.7503V62.8328H17.917Z" stroke="#231F20" stroke-width="0.7"/>
<path d="M36.9996 62.8328V65.2494H42.0836V62.8328H36.9996Z" stroke="#231F20" stroke-width="0.7"/>
<path d="M43.292 62.8328V65.2494H48.1253V62.8328H43.292Z" stroke="#231F20" stroke-width="0.7"/>
<path d="M49.3336 62.8328V65.2494H54.167V62.8328H49.3336Z" stroke="#231F20" stroke-width="0.7"/>
<path d="M37.0004 65.25V67.6667H56.5834V65.25H37.0004Z" fill="#EFA3A3" stroke="#231F20" stroke-width="0.7"/>
<path d="M59 67.6667V72.5001H37H22.75H1V67.6667H22.75V72.5001H37V67.6667H59Z" fill="#F6C6BA"/>
<path d="M37 72.5001H59V67.6667H37V72.5001ZM37 72.5001H22.75M22.75 72.5001H1V67.6667H22.75V72.5001Z" stroke="#231F20" stroke-width="0.7"/>
<path d="M22.75 56.7917V72.5001H37V56.7917H36.0417V55.5834V54.9792H33.982V53.1667H26.375V54.9792H24.0682V56.7917H22.75Z" stroke="#231F20" stroke-width="0.7"/>
<path d="M26.375 61.625V72.5H33.625V61.625C33.625 61.625 33.625 58 30 58C26.375 58 26.375 61.625 26.375 61.625Z" fill="#FFA4A4" stroke="#231F20" stroke-width="0.7"/>
<path d="M5.83337 48.3333V62.8333H10.6667V48.3333H5.83337Z" fill="#EFA3A3" stroke="#231F20" stroke-width="0.7"/>
<path d="M37.25 48.3333V62.8333H42.0833V48.3333H37.25Z" fill="#EFA3A3" stroke="#231F20" stroke-width="0.7"/>
<path d="M11.875 48.3333V62.8333H16.7083V48.3333H11.875Z" fill="#EFA3A3" stroke="#231F20" stroke-width="0.7"/>
<path d="M43.2916 48.3333V62.8333H48.125V48.3333H43.2916Z" fill="#EFA3A3" stroke="#231F20" stroke-width="0.7"/>
<path d="M17.9166 48.3333V62.8333H22.75V48.3333H17.9166Z" fill="#EFA3A3" stroke="#231F20" stroke-width="0.7"/>
<path d="M49.3334 48.3333V62.8333H54.1667V48.3333H49.3334Z" fill="#EFA3A3" stroke="#231F20" stroke-width="0.7"/>
<path d="M48.125 48.3333H11.875L16.7083 44.7083H42.0833L48.125 48.3333Z" fill="#F6C6BA" stroke="#231F20" stroke-width="0.7"/>
<path d="M5.83337 48.3333H11.875L16.7084 44.7083H5.83337V48.3333Z" fill="#EFA3A3" stroke="#231F20" stroke-width="0.7"/>
<path d="M54.1667 48.3333H48.125L42.0834 44.7083H54.1667V48.3333Z" fill="#EFA3A3" stroke="#231F20" stroke-width="0.7"/>
<path d="M44.5002 36.25H15.5002L20.3336 32.625H39.6669L44.5002 36.25Z" fill="#F6C6BA" stroke="#231F20" stroke-width="0.7"/>
<path d="M22.7502 44.7083V36.25H37.2502V44.7083H32.4169H27.5836H22.7502Z" fill="#FFA4A4"/>
<path d="M27.5836 44.7083H22.7502V36.25H37.2502V44.7083H32.4169M27.5836 44.7083V41.0833C27.5836 39.7486 28.6656 38.6667 30.0002 38.6667V38.6667V38.6667C31.3349 38.6667 32.4169 39.7486 32.4169 41.0833V44.7083M27.5836 44.7083H32.4169" stroke="#231F20" stroke-width="0.7"/>
<path d="M9.45862 36.25H15.5003L20.3336 32.625H9.45862V36.25Z" fill="#EFA3A3" stroke="#231F20" stroke-width="0.7"/>
<path d="M39.667 44.7083V36.25H42.0837V44.7083H39.667Z" fill="#EFA3A3" stroke="#231F20" stroke-width="0.7"/>
<path d="M44.5002 44.7083V36.25H46.9169V44.7083H44.5002Z" fill="#EFA3A3" stroke="#231F20" stroke-width="0.7"/>
<path d="M17.917 44.7083H20.3337V36.25H17.917V44.7083Z" fill="#EFA3A3" stroke="#231F20" stroke-width="0.7"/>
<path d="M13.0836 44.7083H15.5003V36.25H13.0836V44.7083Z" fill="#EFA3A3" stroke="#231F20" stroke-width="0.7"/>
<path d="M49.3337 36.25H44.5003L39.667 32.625H49.3337V36.25Z" fill="#EFA3A3" stroke="#231F20" stroke-width="0.7"/>
<path d="M39.6666 24.1672H21.5416L26.375 20.5422H33.625L39.6666 24.1672Z" fill="#F6C6BA" stroke="#231F20" stroke-width="0.7"/>
<path d="M23.9584 32.6256V24.1672H36.0417V32.6256H32.4167H27.5834H23.9584Z" fill="#FFA4A4"/>
<path d="M27.5834 32.6256H23.9584V24.1672H36.0417V32.6256H32.4167M27.5834 32.6256V29.0006C27.5834 27.6659 28.6654 26.5839 30 26.5839V26.5839V26.5839C31.3347 26.5839 32.4167 27.6659 32.4167 29.0006V32.6256M27.5834 32.6256H32.4167" stroke="#231F20" stroke-width="0.7"/>
<path d="M15.5 24.1672H21.5417L26.375 20.5422H15.5V24.1672Z" fill="#EFA3A3" stroke="#231F20" stroke-width="0.7"/>
<path d="M39.6666 32.6256V24.1672H42.0833V32.6256H39.6666Z" fill="#EFA3A3" stroke="#231F20" stroke-width="0.7"/>
<path d="M17.9166 32.6256H20.3333V24.1672H17.9166V32.6256Z" fill="#EFA3A3" stroke="#231F20" stroke-width="0.7"/>
<path d="M44.5 24.1672H39.6667L33.625 20.5422H44.5V24.1672Z" fill="#EFA3A3" stroke="#231F20" stroke-width="0.7"/>
<path d="M39.6666 12.0833H21.5416L23.9583 8.45825H37.25L39.6666 12.0833Z" fill="#F6C6BA" stroke="#231F20" stroke-width="0.7"/>
<path d="M30 4.83325C25.1666 4.83325 25.1666 8.45825 25.1666 8.45825H34.8333C34.8333 8.45825 34.8333 4.83325 30 4.83325Z" fill="#FFA4A4" stroke="#231F20" stroke-width="0.7"/>
<path d="M25.1666 20.5416V12.0833H34.8333V20.5416H31.2083H28.7916H25.1666Z" fill="#FFA4A4"/>
<path d="M28.7916 20.5416H25.1666V12.0833H34.8333V20.5416H31.2083M28.7916 20.5416V15.7083C28.7916 15.0409 29.3326 14.4999 30 14.4999V14.4999V14.4999C30.6673 14.4999 31.2083 15.0409 31.2083 15.7083V20.5416M28.7916 20.5416H31.2083" stroke="#231F20" stroke-width="0.7"/>
<path d="M30 4.83333V0" stroke="#231F20" stroke-width="0.7"/>
<path d="M27.5834 0C27.5834 0 27.5834 2.41667 30 2.41667C32.4167 2.41667 32.4167 0 32.4167 0" stroke="#231F20" stroke-width="0.7"/>
</svg>
