<svg width="61" height="76" viewBox="0 0 61 76" fill="none" xmlns="http://www.w3.org/2000/svg">
<path fill-rule="evenodd" clip-rule="evenodd" d="M55.6175 36.4699V32.0874H5.21822V36.4699H55.6175ZM1.93146 74.3042H58.9044V69.9216H1.93146V74.3042Z" fill="#F6C6BA"/>
<path fill-rule="evenodd" clip-rule="evenodd" d="M28.2266 11.3841C29.6811 11.232 31.1545 11.232 32.6091 11.3841C34.9358 11.6274 37.1486 12.2541 39.1829 13.1998V6.52075H21.6529V13.1998C23.6871 12.2541 25.8999 11.6274 28.2266 11.3841Z" fill="#F6C6BA"/>
<path fill-rule="evenodd" clip-rule="evenodd" d="M11.7922 40.8525V65.539H16.1747V40.8525H11.7922ZM44.6613 40.8525V65.539H49.0438V40.8525H44.6613ZM28.2267 40.8525V65.539H32.6093V40.8525H28.2267Z" fill="#EFA3A3"/>
<path fill-rule="evenodd" clip-rule="evenodd" d="M35.2388 6.52075C35.2388 3.85835 33.0804 1.69995 30.418 1.69995C27.7556 1.69995 25.5972 3.85835 25.5972 6.52075H35.2388Z" fill="#EFA3A3"/>
<path fill-rule="evenodd" clip-rule="evenodd" d="M9.60089 69.9215H18.366V65.539H9.60089V69.9215ZM42.47 69.9215H51.2351V65.539H42.47V69.9215ZM51.2351 40.8525V36.47H42.47V40.8525H51.2351ZM26.0354 69.9215H34.8005V65.539H26.0354V69.9215ZM34.8005 40.8525V36.47H26.0354V40.8525H34.8005ZM18.366 40.8525V36.47H9.60089V40.8525H18.366Z" fill="#F6C6BA"/>
<path d="M45.0317 24.6523H42.8403V22.461H45.0317V24.6523ZM42.8403 22.461H40.6492V20.2698H42.8404L42.8403 22.461Z" fill="white"/>
<path fill-rule="evenodd" clip-rule="evenodd" d="M51.2351 32.0869C51.2351 20.5257 41.8503 11.2698 30.418 11.2698C18.9857 11.2698 9.60095 20.5257 9.60095 32.0869H51.2351Z" fill="#EFA3A3"/>
<path d="M52.3307 68.8245V64.442H50.1394V41.9468H52.3307V37.5642H56.7132V30.9904H52.3032C51.9037 22.9172 47.1143 15.9802 40.2785 12.5209V5.42383H36.231C35.7154 2.68328 33.3058 0.603027 30.418 0.603027C27.5302 0.603027 25.1203 2.68328 24.605 5.42383H20.5574V12.5084C18.5448 13.5247 15.1265 16.5605 13.4771 18.1874L15.0472 19.7295C18.0865 16.7316 23.4553 13.1529 27.6102 12.563C24.6909 16.318 22.1157 23.0814 21.8952 30.9906H10.7284C10.9615 26.8242 12.5173 22.8079 15.1702 19.5783L13.4771 18.1874C10.5028 21.8083 8.76937 26.3179 8.53388 30.9907H4.1227V37.5645H8.50525V41.9471H10.6965V64.4423H8.50525V68.8248H0.835938V75.3986H51.6733V73.2073H3.02721V71.0161H57.8087V73.2073H51.2351V75.3986H60V68.8248H52.3307V68.8245ZM17.2703 64.442V41.9468H19.4616V37.5642H24.9398V41.9468H27.1311V64.442H24.9398V68.8245H19.4616V64.442H17.2703ZM29.3223 64.442V41.9468H31.5136V64.442H29.3223ZM27.1311 39.7555V37.5642H33.7049V39.7555H27.1311ZM27.1311 66.6332H33.7049V68.8245H27.1311V66.6332ZM33.7049 64.442V41.9468H35.8961V37.5642H41.3743V41.9468H43.5656V64.442H41.3743V68.8245H35.8961V64.442H33.7049ZM43.5656 66.6332H50.1394V68.8245H43.5656V66.6332ZM47.9481 64.442H45.7569V41.9468H47.9481V64.442ZM50.1394 39.7555H43.5656V37.5642H50.1394V39.7555ZM50.1084 30.9904H38.9407C38.7203 23.0831 36.1462 16.321 33.2276 12.5655C42.4221 13.8829 49.5897 21.5647 50.1084 30.9904ZM31.5136 7.6151V10.2005C31.1506 10.1825 30.7854 10.173 30.418 10.173C30.0513 10.173 29.6861 10.1822 29.3223 10.2001V7.6151H31.5136ZM38.0873 11.5594C36.6881 11.0349 35.222 10.6488 33.7049 10.4196V7.6151H38.0873V11.5594ZM30.418 2.7943C32.0908 2.7943 33.5094 3.90279 33.9785 5.42383H26.8574C27.3265 3.90279 28.7452 2.7943 30.418 2.7943ZM22.7487 7.6151H27.1311V10.4177C25.6264 10.6431 24.1594 11.0236 22.7487 11.55V7.6151ZM26.3438 19.469C27.4793 16.5029 28.9351 14.094 30.418 12.6967C31.9007 14.094 33.3565 16.503 34.4921 19.469C35.8341 22.9745 36.622 27.0258 36.7459 30.9904H24.09C24.214 27.0258 25.0019 22.9743 26.3438 19.469ZM6.31397 33.1817H54.522V35.373H6.31397V33.1817ZM17.2703 37.5642V39.7555H10.6965V37.5642H17.2703ZM12.8878 41.9468H15.0791V64.442H12.8878V41.9468ZM10.6965 66.6332H17.2703V68.8245H10.6965V66.6332Z" fill="#231F20"/>
<path d="M13.4771 18.1874C15.1265 16.5605 18.5448 13.5247 20.5574 12.5084V5.42383H24.605C25.1203 2.68328 27.5302 0.603027 30.418 0.603027C33.3058 0.603027 35.7154 2.68328 36.231 5.42383H40.2785V12.5209C47.1143 15.9802 51.9037 22.9172 52.3032 30.9904H56.7132V37.5642H52.3307V41.9468H50.1394V64.442H52.3307V68.8245V68.8248H60V75.3986H51.2351V73.2073H57.8087V71.0161H3.02721V73.2073H51.6733V75.3986H0.835938V68.8248H8.50525V64.4423H10.6965V41.9471H8.50525V37.5645H4.1227V30.9907H8.53388C8.76937 26.3179 10.5028 21.8083 13.4771 18.1874ZM13.4771 18.1874L15.0472 19.7295C18.0865 16.7316 23.4553 13.1529 27.6102 12.563C24.6909 16.318 22.1157 23.0814 21.8952 30.9906H10.7284C10.9615 26.8242 12.5173 22.8079 15.1702 19.5783L13.4771 18.1874ZM17.2703 64.442V41.9468H19.4616V37.5642H24.9398V41.9468H27.1311V64.442H24.9398V68.8245H19.4616V64.442H17.2703ZM29.3223 64.442V41.9468H31.5136V64.442H29.3223ZM27.1311 39.7555V37.5642H33.7049V39.7555H27.1311ZM27.1311 66.6332H33.7049V68.8245H27.1311V66.6332ZM33.7049 64.442V41.9468H35.8961V37.5642H41.3743V41.9468H43.5656V64.442H41.3743V68.8245H35.8961V64.442H33.7049ZM43.5656 66.6332H50.1394V68.8245H43.5656V66.6332ZM47.9481 64.442H45.7569V41.9468H47.9481V64.442ZM50.1394 39.7555H43.5656V37.5642H50.1394V39.7555ZM50.1084 30.9904H38.9407C38.7203 23.0831 36.1462 16.321 33.2276 12.5655C42.4221 13.8829 49.5897 21.5647 50.1084 30.9904ZM31.5136 7.6151V10.2005C31.1506 10.1825 30.7854 10.173 30.418 10.173C30.0513 10.173 29.6861 10.1822 29.3223 10.2001V7.6151H31.5136ZM38.0873 11.5594C36.6881 11.0349 35.222 10.6488 33.7049 10.4196V7.6151H38.0873V11.5594ZM30.418 2.7943C32.0908 2.7943 33.5094 3.90279 33.9785 5.42383H26.8574C27.3265 3.90279 28.7452 2.7943 30.418 2.7943ZM22.7487 7.6151H27.1311V10.4177C25.6264 10.6431 24.1594 11.0236 22.7487 11.55V7.6151ZM26.3438 19.469C27.4793 16.5029 28.9351 14.094 30.418 12.6967C31.9007 14.094 33.3565 16.503 34.4921 19.469C35.8341 22.9745 36.622 27.0258 36.7459 30.9904H24.09C24.214 27.0258 25.0019 22.9743 26.3438 19.469ZM6.31397 33.1817H54.522V35.373H6.31397V33.1817ZM17.2703 37.5642V39.7555H10.6965V37.5642H17.2703ZM12.8878 41.9468H15.0791V64.442H12.8878V41.9468ZM10.6965 66.6332H17.2703V68.8245H10.6965V66.6332Z" stroke="#F0F0F0"/>
</svg>
