<svg width="47" height="80" viewBox="0 0 47 80" fill="none" xmlns="http://www.w3.org/2000/svg">
<path d="M23.019 4.2388V0.878906" stroke="black" stroke-width="0.7"/>
<path d="M10.9999 13.9699H35.8962C35.8962 13.9699 34.019 9.08743 31.3176 7.10194C28.6402 5.13419 26.6275 4.27674 23.305 4.24031C19.877 4.20272 17.6979 4.97902 15.0062 7.10194C12.4752 9.09813 10.9999 13.9699 10.9999 13.9699Z" fill="#F6CCCC" stroke="black" stroke-width="0.7"/>
<path d="M15.0063 7.10066L18.7264 10.8208C18.7264 10.8208 21.0023 7.02746 23.305 7.10066C25.5222 7.17113 27.5975 10.8208 27.5975 10.8208L31.6038 7.38682" stroke="black" stroke-width="0.7"/>
<path d="M0.5 79.0961V75.376H46V79.0961H0.5Z" fill="#F6C6BA" stroke="black" stroke-width="0.7"/>
<path d="M10.7288 58.2062V54.2H3.28857V58.2062H10.7288Z" fill="#F6C6BA" stroke="black" stroke-width="0.7"/>
<path d="M35.9107 58.2062V54.2H10.7283V58.2062H35.9107Z" fill="#EFA3A3" stroke="black" stroke-width="0.7"/>
<path d="M43.6376 58.2062V54.2H35.9112V58.2062H43.6376Z" fill="#F6C6BA" stroke="black" stroke-width="0.7"/>
<path d="M12.159 38.1738V34.1675H4.43256V38.1738H12.159Z" fill="#F6C6BA" stroke="black" stroke-width="0.7"/>
<path d="M34.7662 38.1738V34.1675H11.5869V38.1738H34.7662Z" fill="#EFA3A3" stroke="black" stroke-width="0.7"/>
<path d="M42.492 38.1738V34.1675H34.7656V38.1738H42.492Z" fill="#F6C6BA" stroke="black" stroke-width="0.7"/>
<path d="M7.29333 54.1975V38.1724H11.4674H34.6853H39.3811V54.1975H34.6853V38.1724H11.4674V54.1975H7.29333Z" fill="#EFA3A3"/>
<path d="M7.29333 38.1724V54.1975H11.4674V38.1724H7.29333ZM7.29333 38.1724H39.3811M39.3811 38.1724V54.1975H34.6853V38.1724H39.3811Z" stroke="black" stroke-width="0.7"/>
<path d="M11.5015 54.1975V38.1724H34.6467V54.1975H11.5015Z" fill="#F6CCCC" stroke="black" stroke-width="0.7"/>
<path d="M19.2159 47.1159C19.2159 44.6945 21.1788 42.7316 23.6002 42.7316C26.0215 42.7316 27.9844 44.6945 27.9844 47.1159V54.1343H19.2159V47.1159Z" fill="#FFA4A4" stroke="black" stroke-width="0.7"/>
<path d="M18.8659 40.2759H27.0194" stroke="black" stroke-width="0.919105"/>
<path d="M14.1319 43.9583V49.2185" stroke="black" stroke-width="0.7"/>
<path d="M32.0172 43.9583V49.2185" stroke="black" stroke-width="0.7"/>
<path d="M9 16.8789V33.8789H38V16.8789H9Z" fill="#F6CCCC" stroke="black" stroke-width="0.7"/>
<path d="M16.8383 29.7155C16.8383 28.4307 17.8799 27.3891 19.1648 27.3891C20.4496 27.3891 21.4912 28.4307 21.4912 29.7155V34.1832H16.8383V29.7155Z" fill="#FFA4A4" stroke="black" stroke-width="0.7"/>
<path d="M26.473 29.7155C26.473 28.4307 27.5146 27.3891 28.7995 27.3891C30.0844 27.3891 31.126 28.4307 31.126 29.7155V34.1832H26.473V29.7155Z" fill="#FFA4A4" stroke="black" stroke-width="0.7"/>
<circle cx="23.7465" cy="22.1488" r="3.18396" fill="#FFA4A4" stroke="black" stroke-width="0.5"/>
<path d="M14 22.8789V28.1392" stroke="black" stroke-width="0.7"/>
<path d="M33.4023 23.1445V28.4048" stroke="black" stroke-width="0.7"/>
<path d="M24 20.8789V22.8789H22.5" stroke="black" stroke-width="0.5"/>
<path d="M40 16.8789H6V12.8789H40V16.8789Z" fill="#F6C6BA" stroke="black" stroke-width="0.7"/>
<path d="M6.15076 75.3764V58.2065H10.6921H35.9536H41.0627V75.3764H35.9536V58.2065H10.6921V75.3764H6.15076Z" fill="#EFA3A3"/>
<path d="M6.15076 58.2065V75.3764H10.6921V58.2065H6.15076ZM6.15076 58.2065H41.0627M41.0627 58.2065V75.3764H35.9536V58.2065H41.0627Z" stroke="black" stroke-width="0.7"/>
<path d="M10.729 75.3764V58.2065H35.9114V75.3764H10.729Z" fill="#F6CCCC" stroke="black" stroke-width="0.7"/>
<path d="M18.0211 67.9368C18.0211 65.2853 20.1705 63.1359 22.822 63.1359C25.4735 63.1359 27.623 65.2853 27.623 67.9368V75.3132H18.0211V67.9368Z" fill="#FFA4A4" stroke="black" stroke-width="0.7"/>
<path d="M18.7417 60.4961H27.6128" stroke="black" stroke-width="0.7"/>
<path d="M14.6611 64.5024V70.2257" stroke="black" stroke-width="0.7"/>
<path d="M31.9797 64.5024V70.2257" stroke="black" stroke-width="0.7"/>
</svg>
