<svg width="53" height="79" viewBox="0 0 53 79" fill="none" xmlns="http://www.w3.org/2000/svg">
<path d="M4.66003 29.0654H9.8775V19.5044H4.66003V29.0654Z" fill="#D20000" fill-opacity="0.2" stroke="#231F20" stroke-miterlimit="10"/>
<path d="M4.66003 14.7243H9.8775V9.94385H4.66003V14.7243Z" fill="#D20000" fill-opacity="0.2" stroke="#231F20" stroke-miterlimit="10"/>
<path d="M2.92108 43.408H11.6171V32.8916H2.92108V43.408Z" fill="#D20000" fill-opacity="0.2" stroke="#231F20" stroke-miterlimit="10"/>
<path d="M2.8385 78.2158H11.2875V51.0271H2.8385V78.2158Z" fill="#D20000" fill-opacity="0.2" stroke="#231F20" stroke-miterlimit="10"/>
<path d="M7.1927 4.20776C11.0846 6.01757 10.5743 8.17467 10.5743 8.17467C10.6192 8.59079 10.5006 9.00809 10.2435 9.33836C9.98641 9.66864 9.61097 9.88601 9.19653 9.94453H5.1905C4.77621 9.88581 4.40097 9.66836 4.14404 9.33811C3.88711 9.00786 3.76861 8.59067 3.81358 8.17467C3.81358 8.17467 3.30243 6.01757 7.1927 4.20776Z" fill="#FFA4A4" stroke="#231F20" stroke-miterlimit="10"/>
<path d="M7.06061 3.7294V1.36523" stroke="#231F20" stroke-miterlimit="10" stroke-linecap="round" stroke-linejoin="round"/>
<path d="M11.1239 19.3578C11.1358 19.6485 11.0319 19.932 10.8348 20.146C10.6377 20.3601 10.3638 20.4871 10.0731 20.4992H4.04856C3.75846 20.4862 3.48532 20.3589 3.28896 20.1449C3.09261 19.931 2.98905 19.648 3.00099 19.3578V15.801C2.9897 15.511 3.09348 15.2283 3.2897 15.0146C3.48592 14.8008 3.75869 14.6732 4.04856 14.6597H10.0731C10.3635 14.6724 10.6371 14.7996 10.8341 15.0135C11.031 15.2273 11.1352 15.5105 11.1239 15.801V19.3578Z" fill="#FFA4A4" stroke="#231F20" stroke-miterlimit="10" stroke-linecap="round" stroke-linejoin="round"/>
<path d="M12.6321 33.032C12.6445 33.3222 12.5412 33.6053 12.3449 33.8193C12.1486 34.0333 11.8754 34.1607 11.5853 34.1734H2.53875C2.24845 34.1602 1.97511 34.0329 1.77828 33.8191C1.58145 33.6053 1.47708 33.3224 1.48792 33.032V29.1589C1.47643 28.8683 1.58058 28.5851 1.77754 28.3711C1.97451 28.1572 2.24823 28.0301 2.53875 28.0176H11.5878C11.7313 28.0239 11.8722 28.0584 12.0024 28.1192C12.1326 28.1799 12.2495 28.2658 12.3465 28.3718C12.4435 28.4778 12.5187 28.6018 12.5677 28.7369C12.6167 28.872 12.6386 29.0154 12.6321 29.1589V33.032Z" fill="#FFA4A4" stroke="#231F20" stroke-miterlimit="10"/>
<path d="M13.2886 49.885C13.2998 50.1754 13.1957 50.4584 12.999 50.6723C12.8022 50.8861 12.5289 51.0134 12.2385 51.0264H1.88189C1.59195 51.0128 1.3191 50.8853 1.12275 50.6715C0.926397 50.4578 0.822437 50.1751 0.833504 49.885V44.7768C0.822867 44.4869 0.926974 44.2045 1.12324 43.9908C1.3195 43.7771 1.5921 43.6495 1.88189 43.6355H12.2353C12.5255 43.6486 12.7988 43.776 12.9955 43.9898C13.1922 44.2036 13.2964 44.4865 13.2853 44.7768L13.2886 49.885Z" fill="#FFA4A4" stroke="#231F20" stroke-miterlimit="10" stroke-linecap="round" stroke-linejoin="round"/>
<path d="M11.2873 38.1499H41.5372V34.1748H11.2873V38.1499Z" stroke="#231F20" stroke-miterlimit="10"/>
<path d="M11.2873 38.1499H16.2276V34.1748H11.2873V38.1499Z" fill="#D20000" fill-opacity="0.2" stroke="#231F20" stroke-miterlimit="10"/>
<path d="M16.2264 38.1499H21.1594V34.1748H16.2264V38.1499Z" fill="#D20000" fill-opacity="0.2" stroke="#231F20" stroke-miterlimit="10"/>
<path d="M21.1592 38.1499H26.4003V34.1748H21.1592V38.1499Z" fill="#D20000" fill-opacity="0.2" stroke="#231F20" stroke-miterlimit="10"/>
<path d="M26.4006 38.1499H31.6466V34.1748H26.4006V38.1499Z" fill="#D20000" fill-opacity="0.2" stroke="#231F20" stroke-miterlimit="10"/>
<path d="M31.6465 38.1499H36.6023V34.1748H31.6465V38.1499Z" fill="#D20000" fill-opacity="0.2" stroke="#231F20" stroke-miterlimit="10"/>
<path d="M36.6029 38.1499H41.5375V34.1748H36.6029V38.1499Z" fill="#D20000" fill-opacity="0.2" stroke="#231F20" stroke-miterlimit="10"/>
<path d="M24.0011 50.1179V46.1959C24.0011 46.1959 24.1608 43.8774 21.1258 42.1018C18.0923 43.8774 18.2472 46.1959 18.2472 46.1959V50.1171L24.0011 50.1179Z" fill="#D20000" fill-opacity="0.2" stroke="#231F20" stroke-miterlimit="10"/>
<path d="M28.8935 50.1179V46.1959C28.8935 46.1959 29.0305 43.8774 26.4258 42.1018C23.822 43.8774 23.9549 46.1959 23.9549 46.1959V50.1171L28.8935 50.1179Z" fill="#D20000" fill-opacity="0.2" stroke="#231F20" stroke-miterlimit="10"/>
<path d="M18.5735 50.1179V46.1959C18.5735 46.1959 18.717 43.8774 15.9647 42.1018C13.215 43.8774 13.356 46.1959 13.356 46.1959V50.1171L18.5735 50.1179Z" fill="#D20000" fill-opacity="0.2" stroke="#231F20" stroke-miterlimit="10"/>
<path d="M34.2728 49.833V45.911C34.2728 45.911 34.4187 43.5925 31.6477 41.8169C28.8768 43.5925 29.0202 45.911 29.0202 45.911V49.8322L34.2728 49.833Z" fill="#D20000" fill-opacity="0.2" stroke="#231F20" stroke-miterlimit="10"/>
<path d="M39.5159 49.833V45.911C39.5159 45.911 39.6619 43.5925 36.8917 41.8169C34.1175 43.5925 34.2626 45.911 34.2626 45.911V49.8322L39.5159 49.833Z" fill="#D20000" fill-opacity="0.2" stroke="#231F20" stroke-miterlimit="10"/>
<path d="M13.2886 45.7221V44.7805C13.2996 44.4902 13.1955 44.2073 12.9988 43.9935C12.8021 43.7796 12.5288 43.6523 12.2386 43.6392H11.2864V38.1519H41.5362V43.6359H40.593C40.3032 43.6497 40.0304 43.7773 39.8341 43.991C39.6378 44.2047 39.5338 44.4872 39.5446 44.7772V45.9112H39.5161C39.5161 45.9112 39.6612 43.5935 36.8919 41.8171C34.1201 43.5935 34.2644 45.9112 34.2644 45.9112H34.2717C34.2717 45.9112 34.4177 43.5935 31.6483 41.8171C28.8766 43.5935 29.0209 45.9112 29.0209 45.9112H29.0274C29.0274 45.9112 29.1741 43.5935 26.4048 41.8171C23.633 43.5935 23.7798 45.9112 23.7798 45.9112H23.7846C23.7846 45.9112 23.9298 43.5935 21.1596 41.8171C18.3878 43.5935 18.5313 45.9112 18.5313 45.9112H18.5387C18.5387 45.9112 18.6854 43.5935 15.9177 41.8204C13.1459 43.5968 13.2902 45.9145 13.2902 45.9145L13.2886 45.7221Z" fill="#FFA4A4" stroke="#231F20" stroke-miterlimit="10" stroke-linecap="round" stroke-linejoin="round"/>
<path d="M43.3327 28.0166H48.211V20.501H43.3327V28.0166Z" fill="#D20000" fill-opacity="0.2" stroke="#231F20" stroke-miterlimit="10"/>
<path d="M43.3327 14.6584H48.211V9.64966H43.3327V14.6584Z" fill="#D20000" fill-opacity="0.2" stroke="#231F20" stroke-miterlimit="10"/>
<path d="M41.5483 43.6334H49.9966V34.1768H41.5483V43.6334Z" fill="#D20000" fill-opacity="0.2" stroke="#231F20" stroke-miterlimit="10"/>
<path d="M41.5483 78.2158H49.9966V51.0271H41.5483V78.2158Z" fill="#D20000" fill-opacity="0.2" stroke="#231F20" stroke-miterlimit="10"/>
<path d="M45.7709 3.73047C49.662 5.59816 49.1533 7.82373 49.1533 7.82373C49.1533 8.83135 48.5378 9.65066 47.7747 9.65066H43.7671C43.0097 9.65066 42.391 8.83543 42.391 7.82373C42.391 7.82373 41.8798 5.59816 45.7709 3.73047Z" fill="#FFA4A4" stroke="#231F20" stroke-miterlimit="10"/>
<path d="M45.7714 3.7294V1.36523" stroke="#231F20" stroke-miterlimit="10" stroke-linecap="round" stroke-linejoin="round"/>
<path d="M49.8338 19.3578C49.8455 19.6486 49.7413 19.9321 49.5441 20.1461C49.3469 20.3601 49.0729 20.4871 48.7821 20.4992H42.7625C42.6185 20.4933 42.477 20.4591 42.3463 20.3986C42.2155 20.338 42.0979 20.2523 42.0002 20.1463C41.9026 20.0403 41.8268 19.9162 41.7771 19.7809C41.7274 19.6456 41.7049 19.5018 41.7108 19.3578V15.801C41.6996 15.5103 41.8039 15.2271 42.001 15.0132C42.1981 14.7993 42.4719 14.6722 42.7625 14.6597H48.7813C49.0718 14.6724 49.3455 14.7996 49.5425 15.0134C49.7396 15.2273 49.844 15.5104 49.8329 15.801L49.8338 19.3578Z" fill="#FFA4A4" stroke="#231F20" stroke-miterlimit="10" stroke-linecap="round" stroke-linejoin="round"/>
<path d="M51.3426 33.032C51.3545 33.322 51.2511 33.605 51.0549 33.8189C50.8587 34.0328 50.5858 34.1602 50.2958 34.1734H41.25C40.96 34.1602 40.687 34.0328 40.4907 33.8189C40.2944 33.605 40.1908 33.3221 40.2025 33.032V29.1589C40.1901 28.8686 40.2935 28.5854 40.4899 28.3713C40.6864 28.1573 40.9598 28.0301 41.25 28.0176H50.2991C50.4428 28.0238 50.5838 28.0582 50.7142 28.1189C50.8446 28.1796 50.9617 28.2654 51.0589 28.3714C51.1561 28.4774 51.2315 28.6015 51.2807 28.7366C51.3299 28.8717 51.3521 29.0152 51.3458 29.1589L51.3426 33.032Z" fill="#FFA4A4"/>
<path d="M51.3426 33.032C51.3545 33.322 51.2511 33.605 51.0549 33.8189C50.8587 34.0328 50.5858 34.1602 50.2958 34.1734H41.25C40.96 34.1602 40.687 34.0328 40.4907 33.8189C40.2944 33.605 40.1908 33.3221 40.2025 33.032V29.1589C40.1901 28.8686 40.2935 28.5854 40.4899 28.3713C40.6864 28.1573 40.9598 28.0301 41.25 28.0176H50.2991C50.4428 28.0238 50.5838 28.0582 50.7142 28.1189C50.8446 28.1796 50.9617 28.2654 51.0589 28.3714C51.1561 28.4774 51.2315 28.6015 51.2807 28.7366C51.3299 28.8717 51.3521 29.0152 51.3458 29.1589L51.3426 33.032Z" stroke="#231F20" stroke-miterlimit="10" stroke-linecap="round" stroke-linejoin="round"/>
<path d="M51.9993 49.885C52.0104 50.1751 51.9064 50.4578 51.7101 50.6715C51.5137 50.8853 51.2409 51.0128 50.9509 51.0264H40.5926C40.3027 51.0128 40.0299 50.8853 39.8335 50.6715C39.6372 50.4578 39.5332 50.1751 39.5443 49.885V44.7768C39.5336 44.4869 39.6377 44.2045 39.834 43.9908C40.0303 43.7771 40.3029 43.6495 40.5926 43.6355H50.9509C51.2408 43.6493 51.5135 43.7769 51.7098 43.9906C51.9061 44.2043 52.0102 44.4868 51.9993 44.7768V49.885Z" fill="#FFA4A4"/>
<path d="M51.9993 49.885C52.0104 50.1751 51.9064 50.4578 51.7101 50.6715C51.5137 50.8853 51.2409 51.0128 50.9509 51.0264H40.5926C40.3027 51.0128 40.0299 50.8853 39.8335 50.6715C39.6372 50.4578 39.5332 50.1751 39.5443 49.885V44.7768C39.5336 44.4869 39.6377 44.2045 39.834 43.9908C40.0303 43.7771 40.3029 43.6495 40.5926 43.6355H50.9509C51.2408 43.6493 51.5135 43.7769 51.7098 43.9906C51.9061 44.2043 52.0102 44.4868 51.9993 44.7768V49.885Z" stroke="#231F20" stroke-miterlimit="10" stroke-linecap="round" stroke-linejoin="round"/>
<path d="M39.5403 49.8849V49.8328H13.2565V49.8849C13.2676 50.1754 13.1633 50.4584 12.9664 50.6722C12.7695 50.8861 12.4961 51.0133 12.2057 51.0263H11.2519V78.2174H41.5018V51.0287H40.592C40.301 51.016 40.027 50.8885 39.8298 50.6741C39.6327 50.4597 39.5286 50.1759 39.5403 49.8849Z" fill="#FFA4A4" stroke="#231F20" stroke-miterlimit="10"/>
<path d="M18.5032 55.4683C18.5273 56.0291 18.328 56.5765 17.9489 56.9906C17.5699 57.4046 17.0421 57.6514 16.4814 57.6768C15.9203 57.6513 15.392 57.4047 15.0122 56.9909C14.6324 56.577 14.432 56.0296 14.4548 55.4683C14.4322 54.9073 14.6328 54.3601 15.0126 53.9466C15.3924 53.533 15.9205 53.2867 16.4814 53.2615C17.0419 53.2869 17.5694 53.5334 17.9483 53.9471C18.3273 54.3607 18.5268 54.9078 18.5032 55.4683Z" fill="#D20000" fill-opacity="0.2" stroke="#231F20" stroke-miterlimit="10" stroke-linecap="round" stroke-linejoin="round"/>
<path d="M38.31 55.4683C38.3341 56.0292 38.1347 56.5768 37.7555 56.9908C37.3763 57.4049 36.8483 57.6516 36.2875 57.6768C35.7263 57.652 35.1979 57.4055 34.8183 56.9914C34.4388 56.5773 34.2391 56.0295 34.2632 55.4683C34.2396 54.9074 34.4394 54.36 34.8189 53.9462C35.1984 53.5325 35.7266 53.2862 36.2875 53.2615C36.848 53.2867 37.3758 53.5331 37.7549 53.9468C38.1341 54.3605 38.3337 54.9076 38.31 55.4683Z" fill="#D20000" fill-opacity="0.2" stroke="#231F20" stroke-miterlimit="10" stroke-linecap="round" stroke-linejoin="round"/>
<path d="M17.9052 78.217V65.7513C17.9052 65.7513 17.2636 59.1365 26.4113 54.7229H26.4162C35.5671 59.1365 34.9223 65.7513 34.9223 65.7513V78.217H17.9052Z" fill="#D20000" fill-opacity="0.2" stroke="#231F20" stroke-miterlimit="10"/>
</svg>
