<svg width="70" height="74" viewBox="0 0 70 74" fill="none" xmlns="http://www.w3.org/2000/svg">
<path d="M29.5462 52.9055L24.1026 48.1912L15.5341 55.6117H16.0192H31.0342L31.1293 54.2764L29.5462 52.9055Z" fill="#F6C6BA"/>
<path d="M16.6621 56.8948V68.1936H30.1375L30.9424 56.8948H16.6621ZM27.9588 65.8615H23.9308C23.8829 65.8773 23.8327 65.8879 23.7794 65.8879C23.7262 65.8879 23.676 65.8773 23.628 65.8615H19.5999C19.3463 65.8615 19.1407 65.6558 19.1407 65.4022V59.0641C19.1407 58.8105 19.3463 58.6049 19.5999 58.6049H23.628C23.6759 58.5891 23.7262 58.5784 23.7794 58.5784C23.8326 58.5784 23.8828 58.5891 23.9308 58.6049H27.9588C28.2125 58.6049 28.4181 58.8105 28.4181 59.0641V65.4022C28.4181 65.6558 28.2125 65.8615 27.9588 65.8615Z" fill="#F6C6BA"/>
<path d="M31.5789 47.9802H25.8285L31.2447 52.6709L31.5789 47.9802Z" fill="#F6C6BA"/>
<path d="M65.0316 69.4802H50.6441H30.7369H5.05503C3.02602 69.4802 1.37537 71.1309 1.37537 73.1599H68.7113C68.7113 71.1309 67.0606 69.4802 65.0316 69.4802Z" fill="#F6C6BA"/>
<path d="M32.4497 53.8429H48.931L48.077 41.855H33.3037L32.4497 53.8429ZM40.7033 43.7959C42.3953 43.7959 43.7719 45.1725 43.7719 46.8644V51.5382H37.6347V46.8644C37.6347 45.1725 39.0114 43.7959 40.7033 43.7959Z" fill="#F6C6BA"/>
<path d="M33.3732 40.8835H48.0081L47.1533 28.8853H34.228L33.3732 40.8835ZM40.7037 31.2809C42.3956 31.2809 43.7722 32.6574 43.7722 34.3494V39.0231H37.635V34.3494C37.635 32.6574 39.0117 31.2809 40.7037 31.2809Z" fill="#F6C6BA"/>
<path d="M32.3815 54.8123L31.4282 68.1938H35.79V61.7306C35.79 59.0208 37.9946 56.8163 40.7043 56.8163C43.4141 56.8163 45.6186 59.0208 45.6186 61.7306V68.1938H49.9545L49.0012 54.8123H32.3815Z" fill="#F6C6BA"/>
<path d="M49.131 26.1851H31.924V27.5979H49.131V26.1851Z" fill="#F6C6BA"/>
<path d="M32.5283 13.6863V14.3467H48.5387V13.6863H47.7834H33.1618H32.5283Z" fill="#EFA3A3"/>
<path d="M39.7133 7.06889C36.9594 7.41776 34.7788 9.63131 34.4836 12.4013H46.4651C46.1687 9.62028 43.9717 7.40022 41.2024 7.06494C40.9841 7.1985 40.7287 7.27695 40.4546 7.27695C40.1832 7.27695 39.9301 7.20006 39.7133 7.06889Z" fill="#F6C6BA"/>
<path d="M40.2011 5.44531C40.0722 5.52853 39.9862 5.67275 39.9862 5.83726C39.9862 6.09483 40.1956 6.30435 40.4532 6.30435C40.7108 6.30435 40.9203 6.09483 40.9203 5.83726C40.9203 5.67266 40.8342 5.52853 40.7053 5.44531C40.6283 5.48003 40.543 5.49978 40.4531 5.49978C40.3632 5.49978 40.2781 5.48003 40.2011 5.44531Z" fill="#EFA3A3"/>
<path d="M44.515 61.7319C44.515 59.63 42.805 57.9199 40.703 57.9199C38.6011 57.9199 36.891 59.63 36.891 61.7319V68.326H44.515V61.7319Z" fill="#EFA3A3"/>
<path d="M38.7373 50.4337H42.6699V46.8623C42.6699 45.7781 41.7878 44.896 40.7037 44.896C39.6195 44.896 38.7374 45.778 38.7374 46.8623L38.7373 50.4337Z" fill="#EFA3A3"/>
<path d="M42.6698 34.3491C42.6698 33.2649 41.7878 32.3828 40.7036 32.3828C39.6194 32.3828 38.7373 33.2648 38.7373 34.3491V37.9205H42.6699L42.6698 34.3491Z" fill="#EFA3A3"/>
<path d="M37.6324 15.4504H33.9165V25.0838H37.6324V15.4504Z" fill="#EFA3A3"/>
<path d="M42.276 15.4504H38.5504V25.0838H42.276V15.4504Z" fill="#EFA3A3"/>
<path d="M47.0306 15.4504H43.3051V25.0838H47.0306V15.4504Z" fill="#EFA3A3"/>
<path d="M27.5001 59.5247H24.2656V64.9442H27.5001V59.5247Z" fill="#EFA3A3"/>
<path d="M23.295 59.5247H20.0605V64.9442H23.295V59.5247Z" fill="#EFA3A3"/>
<path d="M23.7629 46.8075C23.7745 46.8002 23.7863 46.7933 23.7983 46.7869C23.7864 46.7933 23.7746 46.8002 23.7629 46.8075Z" fill="#231F20"/>
<path d="M16.0229 55.6244H15.5378L24.1063 48.2022L29.5499 52.9175L23.6854 47.8376C23.4824 47.6617 23.41 47.3784 23.5038 47.1267C23.5453 47.0153 23.6167 46.9218 23.7054 46.8508C23.6989 46.8561 23.6917 46.8597 23.6854 46.8653L13.3922 55.7813C13.1892 55.9571 13.1168 56.2405 13.2106 56.4921C13.3044 56.7438 13.5446 56.9106 13.8131 56.9106H15.3799V56.2675C15.3799 55.9123 15.6678 55.6244 16.0229 55.6244Z" fill="#231F20"/>
<path d="M23.859 46.7583C23.8714 46.7532 23.8837 46.7478 23.8966 46.7434C23.8838 46.7477 23.8715 46.7531 23.859 46.7583Z" fill="#231F20"/>
<path d="M23.9666 46.7241C23.9776 46.7216 23.9884 46.7183 23.9997 46.7166C23.9884 46.7183 23.9776 46.7217 23.9666 46.7241Z" fill="#231F20"/>
<path d="M24.1056 46.7063C24.1047 46.7063 24.1037 46.7065 24.1028 46.7065C24.1036 46.7065 24.1045 46.7063 24.1053 46.7063H24.1056Z" fill="#231F20"/>
<path d="M16.6645 68.2104V56.9091H30.9448L31.0364 55.6228H16.0215C15.6664 55.6228 15.3785 55.9107 15.3785 56.2659V56.9091V68.2103L16.6645 68.2104Z" fill="#231F20"/>
<path d="M23.502 47.1247C23.4082 47.3763 23.4806 47.6597 23.6836 47.8355L29.5481 52.9155L31.1312 54.2867L31.2453 52.6841L25.8291 47.9926H31.5795L31.6711 46.7063H24.1047H24.1044C24.1037 46.7063 24.103 46.7065 24.1022 46.7065C24.0671 46.7066 24.0325 46.7099 23.9985 46.7156C23.9873 46.7174 23.9766 46.7209 23.9656 46.7233C23.942 46.7285 23.9186 46.7342 23.8959 46.742C23.8832 46.7464 23.8709 46.752 23.8584 46.7571C23.8376 46.7657 23.8173 46.775 23.7976 46.7858C23.7856 46.7923 23.7739 46.7993 23.7623 46.8066C23.7418 46.8195 23.7224 46.8337 23.7035 46.8488C23.6149 46.9198 23.5435 47.0132 23.502 47.1247Z" fill="#231F20"/>
<path d="M65.0342 68.2102H51.2455L51.2881 68.8077C51.3007 68.9857 51.2388 69.161 51.1173 69.2917C50.9957 69.4223 50.8252 69.4965 50.6467 69.4965H65.0342C67.0633 69.4965 68.7139 71.1475 68.7139 73.1769C68.7139 73.5321 69.0018 73.82 69.3569 73.82C69.712 73.82 69.9999 73.5321 69.9999 73.1769C69.9999 70.4382 67.7723 68.2102 65.0342 68.2102Z" fill="#231F20"/>
<path d="M5.05745 69.4965H30.7393C30.5608 69.4965 30.3904 69.4222 30.2688 69.2917C30.1472 69.161 30.0853 68.9857 30.098 68.8077L30.1405 68.2102H16.6651H15.3791H5.05745C2.3194 68.2102 0.0917969 70.4382 0.0917969 73.1769C0.0917969 73.5321 0.379674 73.82 0.734789 73.82C1.08991 73.82 1.37778 73.5321 1.37778 73.1769C1.37778 71.1475 3.02844 69.4965 5.05745 69.4965Z" fill="#231F20"/>
<path d="M31.5803 47.9916L31.2461 52.6831L31.1319 54.2858L31.0367 55.6213L30.9452 56.9075L30.1402 68.2087L30.0977 68.8062C30.085 68.9842 30.1469 69.1595 30.2685 69.2902C30.3902 69.4208 30.5606 69.495 30.739 69.495H50.6463C50.8247 69.495 50.9952 69.4207 51.1168 69.2902C51.2384 69.1595 51.3003 68.9842 51.2876 68.8062L51.2451 68.2087L48.4446 28.8899H47.1554L48.0101 40.8906H48.6893C48.9576 40.8906 49.175 41.1082 49.175 41.3765C49.175 41.6448 48.9576 41.8623 48.6893 41.8623H48.0793L48.9332 53.8528H49.6384C49.9067 53.8528 50.1242 54.0703 50.1242 54.3386C50.1242 54.6069 49.9067 54.8244 49.6384 54.8244H49.0024L49.9557 68.2087H45.6198V69.4422H35.7912V68.2087H31.4294L32.3827 54.8244H31.7727C31.5045 54.8244 31.287 54.6069 31.287 54.3386C31.287 54.0702 31.5045 53.8528 31.7727 53.8528H32.452L33.306 41.8623H32.6959C32.4277 41.8623 32.2102 41.6448 32.2102 41.3765C32.2102 41.1082 32.4277 40.8906 32.6959 40.8906H33.3752L34.2299 28.8899H32.9407L31.6718 46.7052L31.5803 47.9916Z" fill="#231F20"/>
<path d="M34.2303 28.8924H47.1557H48.4449H49.7763C50.1314 28.8924 50.4193 28.6044 50.4193 28.2493V25.5499C50.4193 25.1947 50.1314 24.9067 49.7763 24.9067H47.9512V25.5499C47.9512 25.8035 47.7456 26.0092 47.4919 26.0092H43.1968H42.8478H38.5623H37.6342H33.459H32.9997V25.5499V24.9067H31.2834C30.9283 24.9067 30.6404 25.1947 30.6404 25.5499V28.2493C30.6404 28.6044 30.9283 28.8924 31.2834 28.8924H32.9411H34.2303ZM49.1333 26.193V27.6061H31.9263V26.193H49.1333Z" fill="#231F20"/>
<path d="M32.9992 14.5365H33.4585H37.6337H38.5618H42.8473H43.1963H47.4914C47.7451 14.5365 47.9507 14.7422 47.9507 14.9959V15.639H49.1842C49.5393 15.639 49.8271 15.3511 49.8271 14.9959V13.0491C49.8271 12.6939 49.5393 12.406 49.1842 12.406H47.7559C47.7744 12.6181 47.7858 12.8323 47.7858 13.0491V13.6923H48.5413V14.3527H32.5307V13.6923H33.1642V13.0491C33.1642 12.8323 33.1756 12.6181 33.1941 12.406H31.8877C31.5326 12.406 31.2448 12.6939 31.2448 13.0491V14.9959C31.2448 15.3511 31.5326 15.639 31.8877 15.639H32.9992V14.9959V14.5365Z" fill="#231F20"/>
<path d="M33.1639 13.6919H47.7855V13.0487C47.7855 12.8319 47.7741 12.6178 47.7556 12.4056C47.4702 9.14827 45.0418 6.49702 41.8917 5.87549C41.8798 6.38034 41.6069 6.8207 41.2027 7.06812C43.9721 7.40347 46.169 9.624 46.4654 12.4056H34.484C34.7791 9.63502 36.9598 7.42092 39.7136 7.07207C39.3078 6.82658 39.0329 6.38714 39.0186 5.88256C35.8874 6.51806 33.478 9.16168 33.1939 12.4057C33.1753 12.6178 33.1639 12.832 33.1639 13.0488V13.6919Z" fill="#231F20"/>
<path d="M39.7149 7.07043C39.9317 7.20163 40.1848 7.27853 40.4562 7.27853C40.7303 7.27853 40.9857 7.20007 41.204 7.06648C41.6082 6.81906 41.881 6.3788 41.893 5.87385C41.8933 5.86237 41.8947 5.85116 41.8947 5.83967C41.8947 5.26665 41.5572 4.77227 41.0713 4.54102V4.88674C41.0713 5.13664 40.9222 5.35126 40.7082 5.44764C40.8372 5.53088 40.9233 5.67512 40.9233 5.83967C40.9233 6.09729 40.7137 6.30686 40.4562 6.30686C40.1986 6.30686 39.9892 6.09729 39.9892 5.83967C39.9892 5.67512 40.0751 5.53088 40.2041 5.44764C39.9902 5.35126 39.841 5.13664 39.841 4.88674V4.54111C39.3552 4.77236 39.0177 5.26674 39.0177 5.83976C39.0177 5.85364 39.0194 5.86714 39.0198 5.88092C39.0341 6.38559 39.309 6.82494 39.7149 7.07043Z" fill="#231F20"/>
<path d="M40.204 5.44911C40.2809 5.48384 40.3661 5.50359 40.456 5.50359C40.5459 5.50359 40.6311 5.48384 40.7082 5.44911C40.9221 5.35273 41.0713 5.13811 41.0713 4.88821V4.54249V1.40054C41.0713 1.06069 40.7959 0.785156 40.4561 0.785156C40.1163 0.785156 39.8409 1.06069 39.8409 1.40054V4.54258V4.88821C39.8409 5.13811 39.99 5.35283 40.204 5.44911Z" fill="#231F20"/>
<path d="M40.7051 56.8313C37.9953 56.8313 35.7908 59.0363 35.7908 61.7466V68.2112V69.4446H45.6194V68.2112V61.7466C45.6194 59.0363 43.4148 56.8313 40.7051 56.8313ZM36.893 68.3421V61.7466C36.893 59.6442 38.6031 57.9338 40.7051 57.9338C42.807 57.9338 44.5171 59.6442 44.5171 61.7466V68.3421H36.893Z" fill="#231F20"/>
<path d="M37.6377 46.8748V51.5496H43.7749V46.8748C43.7749 45.1825 42.3983 43.8057 40.7063 43.8057C39.0143 43.8057 37.6377 45.1825 37.6377 46.8748ZM40.7063 44.9082C41.7906 44.9082 42.6726 45.7904 42.6726 46.8748V50.447H38.74V46.8748C38.74 45.7904 39.6221 44.9082 40.7063 44.9082Z" fill="#231F20"/>
<path d="M43.7748 39.0322V34.3575C43.7748 32.6652 42.3982 31.2883 40.7062 31.2883C39.0143 31.2883 37.6377 32.6652 37.6377 34.3575V39.0322H43.7748ZM38.7399 34.3574C38.7399 33.273 39.6219 32.3907 40.7062 32.3907C41.7904 32.3907 42.6724 33.2729 42.6724 34.3574V37.9296H38.7398L38.7399 34.3574Z" fill="#231F20"/>
<path d="M32.452 53.8564H31.7727C31.5045 53.8564 31.287 54.074 31.287 54.3423C31.287 54.6106 31.5045 54.8281 31.7727 54.8281H32.3827H49.0024H49.6385C49.9068 54.8281 50.1242 54.6106 50.1242 54.3423C50.1242 54.0739 49.9068 53.8564 49.6385 53.8564H48.9333H32.452Z" fill="#231F20"/>
<path d="M32.6973 40.8906C32.4291 40.8906 32.2115 41.1082 32.2115 41.3765C32.2115 41.6447 32.4291 41.8623 32.6973 41.8623H33.3073H48.0806H48.6906C48.9589 41.8623 49.1764 41.6447 49.1764 41.3765C49.1764 41.1082 48.9589 40.8906 48.6906 40.8906H48.0114H33.3765H32.6973Z" fill="#231F20"/>
<path d="M32.9996 25.5493V26.0087H33.4589H37.6341V25.09H33.9182V15.4546H37.6341V14.5359H33.4589H32.9996V14.9953V15.6384V24.9062V25.5493Z" fill="#231F20"/>
<path d="M42.3878 25.5493V14.9953C42.3878 14.7416 42.5934 14.5359 42.8471 14.5359H38.5617H37.6335V15.4546V25.0901V26.0088H38.5617H42.8471C42.5934 26.0087 42.3878 25.8031 42.3878 25.5493ZM42.2776 25.09H38.552V15.4546H42.2776V25.09Z" fill="#231F20"/>
<path d="M47.4927 14.5359H43.1976H42.8486C42.5949 14.5359 42.3893 14.7416 42.3893 14.9953V25.5494C42.3893 25.8031 42.5949 26.0088 42.8486 26.0088H43.1976H47.4927C47.7464 26.0088 47.952 25.8031 47.952 25.5494V24.9063V15.6384V14.9953C47.952 14.7416 47.7464 14.5359 47.4927 14.5359ZM47.0334 25.09H43.3078V15.4546H47.0334V25.09Z" fill="#231F20"/>
<path d="M23.2966 65.4191V64.9598H20.0621V59.5391H23.2966V59.0797C23.2966 58.8647 23.4373 58.6843 23.631 58.6204H19.603C19.3493 58.6204 19.1437 58.8261 19.1437 59.0797V65.4191C19.1437 65.6728 19.3493 65.8785 19.603 65.8785H23.631C23.4373 65.8146 23.2966 65.6343 23.2966 65.4191Z" fill="#231F20"/>
<path d="M27.9615 58.6204H23.9335C24.1272 58.6843 24.2679 58.8647 24.2679 59.0797V59.5391H27.5024V64.9598H24.2679V65.4191C24.2679 65.6342 24.1272 65.8146 23.9335 65.8785H27.9615C28.2152 65.8785 28.4208 65.6728 28.4208 65.4191V59.0797C28.4208 58.8261 28.2152 58.6204 27.9615 58.6204Z" fill="#231F20"/>
<path d="M24.2678 65.4187V64.9594V59.5387V59.0793C24.2678 58.8643 24.1271 58.6839 23.9333 58.62C23.8855 58.6042 23.8352 58.5935 23.782 58.5935C23.7288 58.5935 23.6785 58.6042 23.6306 58.62C23.437 58.6839 23.2961 58.8643 23.2961 59.0793V59.5387V64.9594V65.4187C23.2961 65.6338 23.4369 65.8142 23.6306 65.8781C23.6784 65.8939 23.7288 65.9046 23.782 65.9046C23.8352 65.9046 23.8854 65.8939 23.9333 65.8781C24.1271 65.8142 24.2678 65.6339 24.2678 65.4187Z" fill="#231F20"/>
</svg>
